<?xml version="1.0" standalone="no"?><!DOCTYPE svg PUBLIC "-//W3C//DTD SVG 1.1//EN" "http://www.w3.org/Graphics/SVG/1.1/DTD/svg11.dtd"><svg t="1776439746687" class="icon" viewBox="0 0 1024 1024" version="1.1" xmlns="http://www.w3.org/2000/svg" p-id="10787" xmlns:xlink="http://www.w3.org/1999/xlink" width="200" height="200"><path d="M520 557.1c202.7 0 367 59.5 367 147.5S722.7 832.5 520 832.5s-367-39.8-367-127.9 164.3-147.5 367-147.5z" fill="#FFC55F" p-id="10788"></path><path d="M201.3 635.4c-4 8.7-6.1 18-6.1 28 0 88 164.3 127.9 367 127.9 138.6 0 259.3-18.6 321.7-58.6-31.5 68.5-181.1 99.9-360.9 99.9-202.7 0-367-39.8-367-127.9 0.1-27.8 16.5-50.8 45.3-69.3z" fill="#FFE48F" p-id="10789"></path><path d="M520 842.5c-106.7 0-197.5-10.9-262.5-31.4-35.5-11.2-63.1-25.3-82.2-41.8-21.4-18.6-32.3-40.3-32.3-64.6 0-24.2 10.7-46.9 31.9-67.4 19.3-18.6 46.9-35 82-48.7 68.6-26.7 162-41.4 263.1-41.4 101.1 0 194.6 14.7 263.1 41.4 35.1 13.7 62.7 30.1 82 48.7 21.2 20.5 31.9 43.1 31.9 67.4 0 24.3-10.9 46.1-32.3 64.7-19.1 16.5-46.7 30.6-82.2 41.8-65 20.5-155.8 31.3-262.5 31.3z m0-275.4c-98.7 0-189.5 14.2-255.9 40.1-65.1 25.4-101.1 60-101.1 97.5 0 18.5 8.3 34.7 25.4 49.6 17 14.7 42.3 27.5 75.1 37.8 63.1 19.9 151.8 30.5 256.5 30.5s193.4-10.5 256.5-30.5c32.8-10.4 58.1-23.1 75.1-37.8 17.1-14.8 25.4-31 25.4-49.6 0-37.4-35.9-72-101.1-97.4-66.3-25.9-157.2-40.2-255.9-40.2z" fill="#543630" p-id="10790"></path><path d="M507.1 468.1c202.6 4.3 365.6 67.4 363.7 155.4s-167 124.3-369.6 119.9-366-47.7-364.1-135.7c1.8-88 167.3-144 370-139.6z" fill="#FFC55F" p-id="10791"></path><path d="M186.8 539.5c-4.2 8.6-6.5 17.9-6.7 27.8-1.9 88 161.5 131.3 364.1 135.7 138.6 3 259.7-13.1 322.9-51.7-32.9 67.8-183.2 96-362.9 92.1-202.6-4.3-366-47.7-364.1-135.7 0.6-27.7 17.5-50.4 46.7-68.2z" fill="#FFE48F" p-id="10792"></path><path d="M533.3 753.7c-10.6 0-21.4-0.1-32.4-0.4-106.7-2.3-197.2-15.1-261.8-37-35.2-12-62.6-26.6-81.3-43.6-21-19-31.4-41-30.9-65.3 0.5-24.2 11.7-46.7 33.3-66.7 19.7-18.2 47.6-34 83-46.9 69.1-25.2 162.9-37.9 264-35.8 101.1 2.2 194.2 18.9 262.2 47.1 34.8 14.4 62 31.4 80.9 50.5 20.7 20.9 31 43.8 30.4 68-0.5 24.3-11.8 45.8-33.7 64-19.4 16.1-47.4 29.6-83.1 40-58.6 17.2-137.9 26.1-230.6 26.1z m-48.2-275.9c-90.3 0-173 12.2-234.9 34.8-65.7 24-102.4 57.8-103.2 95.3-0.4 18.5 7.6 34.9 24.3 50.1 16.7 15.1 41.7 28.4 74.3 39.4 62.7 21.3 151.1 33.7 255.8 35.9 104.6 2.3 193.5-6.4 257.1-24.9 33.1-9.7 58.6-21.8 75.9-36.2 17.4-14.5 26.1-30.5 26.4-49 0.8-37.4-34.4-72.8-99-99.6-65.7-27.3-156.3-43.4-254.9-45.5-7.3-0.2-14.6-0.3-21.8-0.3z" fill="#543630" p-id="10793"></path><path d="M510.4 382.6c202.4-11 369.7 39.6 374.4 127.5 4.8 87.9-157.1 136.5-359.5 147.5s-368.6-19.9-373.4-107.8c-4.7-88 156.1-156.3 358.5-167.2z" fill="#FFC55F" p-id="10794"></path><path d="M196.4 477.9c-3.5 8.9-5.1 18.3-4.6 28.2 4.8 87.9 171 118.8 373.4 107.8 138.4-7.5 257.9-32.6 318.1-75.9-27.7 70.1-175.4 109.5-354.9 119.3-202.4 11-368.6-19.9-373.4-107.8-1.5-27.7 13.6-51.6 41.4-71.6z" fill="#FFE48F" p-id="10795"></path><path d="M449.4 669.7c-73.9 0-137.8-6.5-187.5-19.3-36-9.3-64.4-21.8-84.3-37.3-22.4-17.4-34.4-38.5-35.7-62.8-1.3-24.2 8.2-47.4 28.2-69 18.2-19.7 44.9-37.5 79.2-53.1 67-30.4 159.5-50.1 260.5-55.6s195.1 4.2 265 27.1c35.8 11.8 64.2 26.6 84.5 44.2 22.2 19.3 34.2 41.3 35.5 65.5 1.3 24.3-8.4 46.6-28.7 66.3-18.1 17.6-45 33.1-79.8 46.2-63.8 24-153.9 39.8-260.4 45.5-26.5 1.6-52.1 2.3-76.5 2.3z m115.2-278.6c-17.6 0-35.5 0.5-53.7 1.5-98.5 5.3-188.5 24.5-253.3 53.8-63.7 28.9-97.7 65.4-95.7 102.8 1 18.5 10.2 34.2 28 48.1 17.8 13.8 43.7 25.1 77 33.7 64.1 16.5 153.2 22.2 257.8 16.5 104.5-5.7 192.5-21 254.5-44.3 32.2-12.1 56.8-26.2 72.9-41.8 16.3-15.7 23.7-32.4 22.7-50.9-2-37.4-39.8-70-106.2-91.8-55.2-18.1-126.2-27.6-204-27.6z m-54.2-8.5z" fill="#543630" p-id="10796"></path><path d="M514.1 291.9c202.6 6 365 70.4 362.4 158.3-2.6 88-168 122.9-370.6 116.9s-365.6-50.7-363-138.7c2.6-88 168.6-142.6 371.2-136.5z" fill="#FFC55F" p-id="10797"></path><path d="M193.2 360.6c-4.3 8.6-6.6 17.8-6.9 27.8-2.6 88 160.4 132.7 363 138.7 138.6 4.1 259.8-10.9 323.3-49-33.5 67.6-183.9 94.5-363.7 89.1-202.6-6-365.6-50.7-363-138.7 0.9-27.8 17.9-50.3 47.3-67.9z" fill="#FFE48F" p-id="10798"></path><path d="M549.6 577.8c-14.3 0-29-0.2-44-0.7-106.6-3.2-197-16.7-261.5-39.2-35.1-12.2-62.3-27.1-80.9-44.2-20.9-19.2-31.1-41.3-30.4-65.6 0.7-24.2 12.1-46.6 33.9-66.4 19.8-18.1 47.9-33.6 83.4-46.3 69.3-24.7 163.2-36.6 264.2-33.6 101.1 3 194 20.5 261.8 49.2 34.7 14.7 61.8 31.9 80.5 51.1 20.5 21.1 30.6 44.1 29.9 68.3-0.7 24.3-12.2 45.7-34.2 63.7-19.6 16-47.6 29.2-83.4 39.3-56.4 16.1-131.6 24.4-219.3 24.4z m-65.8-276.4c-87.1 0-166.8 11.5-227 32.9-65.9 23.5-102.9 57-104 94.4-0.5 18.5 7.3 35 23.9 50.3 16.5 15.2 41.4 28.7 73.9 40.1 62.5 21.8 150.8 34.9 255.5 38 104.6 3.1 193.6-4.8 257.3-22.8 33.1-9.4 58.8-21.4 76.2-35.6 17.5-14.3 26.3-30.3 26.9-48.8 1.1-37.4-33.8-73.1-98.2-100.4-65.5-27.8-155.9-44.7-254.6-47.6-10-0.3-20-0.5-29.9-0.5z" fill="#543630" p-id="10799"></path><path d="M696.5 287.2C643.1 266 575.4 262 510 261.1c-75.6-1.1-152.7 6.7-209.8 31.2-84.7 36.2-46.6 82.1-46.6 82.1 6.9 11 40.7 41.4 33.3 60.9-10.8 28.5-32.2 64.9-17 103.7 15.2 38.7-15.2 94.8 36.8 99.9 91.5 9 63.4-66.2 62.8-97.8-1-46.9 63.9-84.4 120.2-90.5 41.1-8.2 144.5-7.5 237.2-23.4 88.7-15.5 63.9-102.6-30.4-140z" fill="#FF6687" p-id="10800"></path><path d="M321 649.4c-4.8 0-9.9-0.3-15.3-0.8-18.9-1.8-31.4-10.2-37.2-24.7-4.7-11.8-4.4-25.7-4-40.4 0.3-14.3 0.7-29.2-4-41.1-14.2-36.3-0.1-69.8 11.2-96.8 2.1-4.9 4-9.6 5.7-14.1 3.5-9.1-14.2-29.8-22.7-39.7-4.1-4.8-7.3-8.6-9.4-11.8-2.6-3.4-14.3-20.3-9-42 5.3-21.8 25.4-40.4 59.9-55.1 36.3-15.5 102.9-33.6 213.9-32 66 1 134.7 4.9 190.1 26.8 57.9 22.9 95.5 66.3 91.4 105.5-2.9 27.5-25.8 47-63 53.4-53.8 9.3-111.3 13-157.5 16-33.6 2.2-62.6 4.1-79.5 7.4-0.3 0.1-0.6 0.1-0.9 0.1-26.8 2.9-55.6 13.5-77 28.2-13 9-34.8 27.7-34.3 52.1 0.1 4.7 0.9 11 1.8 17.7 3.1 23.1 7.3 54.7-11.7 74.5-10.7 11.4-26.6 16.8-48.5 16.8zM496.3 271c-58.1 0-134.3 5.7-192.2 30.5-27.8 11.9-44.5 26.1-48.2 41.1-3.5 14 5.1 24.9 5.5 25.4 0.3 0.3 0.5 0.6 0.7 1 1.3 2.1 4.5 5.9 8 9.9 14.3 16.7 33.8 39.6 26.2 59.8-1.8 4.8-3.8 9.6-6 14.7-10.4 24.9-22.3 53.1-11.1 81.8 6.1 15.7 5.7 33.3 5.3 48.9-0.8 31.3 1 42.5 23.1 44.6 23.1 2.3 39.1-1 47.5-9.8 12.4-12.8 9-37.9 6.3-58-1-7.2-1.9-14.1-2-19.9-0.5-25 14.7-49.5 42.9-69 24.2-16.7 55.4-28.2 85.7-31.6 18.2-3.5 46.2-5.4 81.7-7.7 45.7-3 102.6-6.7 155.4-15.7 28.1-4.8 44.7-17.5 46.5-35.8 2.7-25.6-23.6-62.9-78.9-84.8-52.3-20.7-118.9-24.5-183-25.4h-13.4z m-6.7 179.4z" fill="#543630" p-id="10801"></path><path d="M413.6 280.9a96.6 89.4 0 1 0 193.2 0 96.6 89.4 0 1 0-193.2 0z" fill="#FFDEE3" p-id="10802"></path><path d="M510.2 380.3c-58.8 0-106.6-44.6-106.6-99.4 0-54.8 47.8-99.4 106.6-99.4s106.6 44.6 106.6 99.4c0 54.8-47.8 99.4-106.6 99.4z m0-178.8c-47.8 0-86.6 35.6-86.6 79.4s38.9 79.4 86.6 79.4 86.6-35.6 86.6-79.4-38.9-79.4-86.6-79.4z" fill="#543630" p-id="10803"></path><path d="M574.6 223.8c3 8.6 4.6 17.8 4.6 27.3 0 49.4-43.3 89.4-96.6 89.4-28.2 0-53.6-11.2-71.3-29.1 12.5 36 48.9 62.1 92 62.1 53.4 0 96.6-40 96.6-89.4 0-23.3-9.6-44.4-25.3-60.3z" fill="#FFB3C2" p-id="10804"></path><path d="M510.2 380.3c-58.8 0-106.6-44.6-106.6-99.4 0-54.8 47.8-99.4 106.6-99.4s106.6 44.6 106.6 99.4c0 54.8-47.8 99.4-106.6 99.4z m0-178.8c-47.8 0-86.6 35.6-86.6 79.4s38.9 79.4 86.6 79.4 86.6-35.6 86.6-79.4-38.9-79.4-86.6-79.4z" fill="#543630" p-id="10805"></path></svg>